<svg xmlns="http://www.w3.org/2000/svg" xmlns:xlink="http://www.w3.org/1999/xlink" contentStyleType="text/css" data-diagram-type="STATE" height="326px" preserveAspectRatio="none" style="width:845px;height:326px;background:#FFFFFF;" version="1.1" viewBox="0 0 845 326" width="845px" zoomAndPan="magnify"><title>InventoryReservation &#8212; theo Order</title><defs/><g><g class="title" data-source-line="1"><text fill="#000000" font-family="sans-serif" font-size="14" font-weight="bold" lengthAdjust="spacing" textLength="236.9404" x="297.1682" y="24.5332">InventoryReservation &#8212; theo Order</text></g><ellipse cx="350" cy="54.6094" fill="#222222" rx="10" ry="10" style="stroke:#222222;stroke-width:1;"/><g id="ACTIVE"><rect fill="#F1F1F1" height="50" rx="12.5" ry="12.5" style="stroke:#181818;stroke-width:0.5;" width="70.5654" x="314.5" y="142.6094"/><line style="stroke:#181818;stroke-width:0.5;" x1="314.5" x2="385.0654" y1="170.2188" y2="170.2188"/><text fill="#000000" font-family="sans-serif" font-size="14" lengthAdjust="spacing" textLength="50.5654" x="324.5" y="162.1426">ACTIVE</text></g><g id="CONSUMED"><rect fill="#F1F1F1" height="50" rx="12.5" ry="12.5" style="stroke:#181818;stroke-width:0.5;" width="101.6689" x="7" y="270.6094"/><line style="stroke:#181818;stroke-width:0.5;" x1="7" x2="108.6689" y1="298.2188" y2="298.2188"/><text fill="#000000" font-family="sans-serif" font-size="14" lengthAdjust="spacing" textLength="81.6689" x="17" y="290.1426">CONSUMED</text></g><g id="RELEASED"><rect fill="#F1F1F1" height="50" rx="12.5" ry="12.5" style="stroke:#181818;stroke-width:0.5;" width="94.6963" x="302.5" y="270.6094"/><line style="stroke:#181818;stroke-width:0.5;" x1="302.5" x2="397.1963" y1="298.2188" y2="298.2188"/><text fill="#000000" font-family="sans-serif" font-size="14" lengthAdjust="spacing" textLength="74.6963" x="312.5" y="290.1426">RELEASED</text></g><g id="EXPIRED"><rect fill="#F1F1F1" height="50" rx="12.5" ry="12.5" style="stroke:#181818;stroke-width:0.5;" width="81.4619" x="561.5" y="270.6094"/><line style="stroke:#181818;stroke-width:0.5;" x1="561.5" x2="642.9619" y1="298.2188" y2="298.2188"/><text fill="#000000" font-family="sans-serif" font-size="14" lengthAdjust="spacing" textLength="61.4619" x="571.5" y="290.1426">EXPIRED</text></g><!--link *start* to ACTIVE--><g class="link" data-entity-1=".start." data-entity-2="ACTIVE" data-source-line="2" data-uid="lnk4" id="link_.start._ACTIVE"><path d="M350,64.6894 C350,81.4694 350,111.8294 350,136.2594" fill="none" id="*start*-to-ACTIVE" style="stroke:#181818;stroke-width:1;"/><polygon fill="#181818" points="350,142.2594,354,133.2594,350,137.2594,346,133.2594,350,142.2594" style="stroke:#181818;stroke-width:1;"/><text fill="#000000" font-family="sans-serif" font-size="13" lengthAdjust="spacing" textLength="196.5742" x="351" y="109.1045">reserve SKU cho order_id d&#7921; ki&#7871;n</text></g><!--link ACTIVE to CONSUMED--><g class="link" data-entity-1="ACTIVE" data-entity-2="CONSUMED" data-source-line="3" data-uid="lnk6" id="link_ACTIVE_CONSUMED"><path d="M314.36,171.7694 C250.76,178.0694 121.18,194.0994 87,222.6094 C72.72,234.5194 66.7734,248.6663 63.0634,264.5663" fill="none" id="ACTIVE-to-CONSUMED" style="stroke:#181818;stroke-width:1;"/><polygon fill="#181818" points="61.7,270.4094,67.6404,262.5537,62.8361,265.5402,59.8497,260.7359,61.7,270.4094" style="stroke:#181818;stroke-width:1;"/><text fill="#000000" font-family="sans-serif" font-size="13" lengthAdjust="spacing" textLength="250.0151" x="88" y="237.1045">COD t&#7841;o xong / sandbox Payment Success</text></g><!--link ACTIVE to RELEASED--><g class="link" data-entity-1="ACTIVE" data-entity-2="RELEASED" data-source-line="4" data-uid="lnk8" id="link_ACTIVE_RELEASED"><path d="M348.37,192.7894 C347.82,202.1094 347.27,212.8494 347,222.6094 C346.56,238.4894 346.9208,250.3507 347.7808,264.3007" fill="none" id="ACTIVE-to-RELEASED" style="stroke:#181818;stroke-width:1;"/><polygon fill="#181818" points="348.15,270.2894,351.5886,261.0603,347.8423,265.2988,343.6038,261.5526,348.15,270.2894" style="stroke:#181818;stroke-width:1;"/><text fill="#000000" font-family="sans-serif" font-size="13" lengthAdjust="spacing" textLength="210.2979" x="348" y="237.1045">l&#7895;i t&#7841;o Order / h&#7911;y / sandbox h&#7871;t h&#7841;n</text></g><!--link ACTIVE to EXPIRED--><g class="link" data-entity-1="ACTIVE" data-entity-2="EXPIRED" data-source-line="5" data-uid="lnk10" id="link_ACTIVE_EXPIRED"><path d="M385.83,169.1494 C431.5,171.6094 510.77,181.9594 563,222.6094 C578.48,234.6594 586.4746,249.0322 592.5146,264.8922" fill="none" id="ACTIVE-to-EXPIRED" style="stroke:#181818;stroke-width:1;"/><polygon fill="#181818" points="594.65,270.4994,595.185,260.6651,592.8705,265.8267,587.7088,263.5122,594.65,270.4994" style="stroke:#181818;stroke-width:1;"/><text fill="#000000" font-family="sans-serif" font-size="13" lengthAdjust="spacing" textLength="257.2769" x="580" y="237.1045">timeout sau &#273;&#7889;i so&#225;t Payment ch&#432;a Success</text></g><!--SRC=[LOwzIWD154RxFCLN2y7UGWYRAHP_DkmQ2GIHTNTm1fEvC7CtPBkyGa2mtYgjjjd2Gl4znYTnTeaIcrjzvzp3cXSIiLb9msJhL3ffLpbhClZUF8EL92Isb7OmFxd3S7YEKNGJtmgSmVPRYUnYYa8Hg9lTwnAbRz_mfFt-tGmEwmwCakjiUYN60OsICTZl6yAQp2DEuN9JFj0QaxnUXX9aLL58vuxnL5oAKTRZ2z- -w8EWZmi6vTjTVMHIuJrtj_aN8MQJEEqbh9UIAWv0XS-jRxSQZZuQ_cierDTh_blo0m00]--></g></svg>