<svg xmlns="http://www.w3.org/2000/svg" xmlns:xlink="http://www.w3.org/1999/xlink" contentStyleType="text/css" data-diagram-type="SEQUENCE" height="846px" preserveAspectRatio="none" style="width:892px;height:846px;background:#FFFFFF;" version="1.1" viewBox="0 0 892 846" width="892px" zoomAndPan="magnify"><title>Hai lo&#7841;i voucher trong m&#7897;t l&#7847;n &#273;&#7863;t h&#224;ng</title><defs/><g><text fill="#000000" font-family="sans-serif" font-size="14" font-weight="bold" lengthAdjust="spacing" textLength="263.6895" x="310.6216" y="29.5332">Hai lo&#7841;i voucher trong m&#7897;t l&#7847;n &#273;&#7863;t h&#224;ng</text><text fill="#000000" font-family="sans-serif" font-size="14" lengthAdjust="spacing" textLength="502.5098" x="191.2114" y="834.0098">Kh&#225;ch th&#7845;y ti&#7873;n t&#7915;ng &#273;&#417;n tr&#432;&#7899;c khi x&#225;c nh&#7853;n; gi&#7843;m gi&#225; &#273;&#227; ch&#7889;t kh&#244;ng &#273;&#7893;i v&#7873; sau.</text><g><title>.ng d.ng</title><rect fill="#FFFFFF" height="256.2969" style="stroke:#181818;stroke-width:1;" width="10" x="345.1079" y="153.5703"/></g><g><title>.ng d.ng</title><rect fill="#FFFFFF" height="169.5938" style="stroke:#181818;stroke-width:1;" width="10" x="345.1079" y="509.9219"/></g><g><title>H. th.ng .u ..i v. ..n h.ng</title><rect fill="#FFFFFF" height="203.5938" style="stroke:#181818;stroke-width:1;" width="10" x="625.3271" y="183.9219"/></g><g><title>H. th.ng .u ..i v. ..n h.ng</title><rect fill="#FFFFFF" height="116.8906" style="stroke:#181818;stroke-width:1;" width="10" x="625.3271" y="540.2734"/></g><rect fill="none" height="138.2422" style="stroke:#000000;stroke-width:1.5;" width="574.106" x="301.8267" y="242.2734"/><rect fill="none" height="218.2969" style="stroke:#000000;stroke-width:1.5;" width="738.7236" x="10" y="469.2188"/><rect fill="none" height="94.8906" style="stroke:#000000;stroke-width:1.5;" width="436.897" x="301.8267" y="555.2734"/><g><title>Kh.ch h.ng</title><rect fill="#000000" fill-opacity="0.00000" height="619.6484" width="8" x="56.3652" y="121.2188"/><line style="stroke:#181818;stroke-width:0.5;stroke-dasharray:5,5;" x1="60" x2="60" y1="121.2188" y2="740.8672"/></g><g><title>.ng d.ng</title><rect fill="#000000" fill-opacity="0.00000" height="619.6484" width="8" x="346.1079" y="121.2188"/><line style="stroke:#181818;stroke-width:0.5;stroke-dasharray:5,5;" x1="349.8267" x2="349.8267" y1="121.2188" y2="740.8672"/></g><g><title>H. th.ng .u ..i v. ..n h.ng</title><rect fill="#000000" fill-opacity="0.00000" height="619.6484" width="8" x="626.3271" y="121.2188"/><line style="stroke:#181818;stroke-width:0.5;stroke-dasharray:5,5;" x1="629.9307" x2="629.9307" y1="121.2188" y2="740.8672"/></g><g class="participant participant-head" data-participant="Customer"><text fill="#000000" font-family="sans-serif" font-size="14" lengthAdjust="spacing" textLength="74.7305" x="20" y="118.1426">Kh&#225;ch h&#224;ng</text><ellipse cx="60.3652" cy="52.1094" fill="#E2E2F0" rx="8" ry="8" style="stroke:#181818;stroke-width:0.5;"/><path d="M60.3652,60.1094 L60.3652,87.1094 M47.3652,68.1094 L73.3652,68.1094 M60.3652,87.1094 L47.3652,102.1094 M60.3652,87.1094 L73.3652,102.1094" fill="none" style="stroke:#181818;stroke-width:0.5;"/></g><g class="participant participant-tail" data-participant="Customer"><text fill="#000000" font-family="sans-serif" font-size="14" lengthAdjust="spacing" textLength="74.7305" x="20" y="754.4004">Kh&#225;ch h&#224;ng</text><ellipse cx="60.3652" cy="765.9766" fill="#E2E2F0" rx="8" ry="8" style="stroke:#181818;stroke-width:0.5;"/><path d="M60.3652,773.9766 L60.3652,800.9766 M47.3652,781.9766 L73.3652,781.9766 M60.3652,800.9766 L47.3652,815.9766 M60.3652,800.9766 L73.3652,815.9766" fill="none" style="stroke:#181818;stroke-width:0.5;"/></g><g class="participant participant-head" data-participant="App"><rect fill="#E2E2F0" height="31.6094" rx="2.5" ry="2.5" style="stroke:#181818;stroke-width:0.5;" width="76.5625" x="311.8267" y="88.6094"/><text fill="#000000" font-family="sans-serif" font-size="14" lengthAdjust="spacing" textLength="62.5625" x="318.8267" y="110.1426">&#7912;ng d&#7909;ng</text></g><g class="participant participant-tail" data-participant="App"><rect fill="#E2E2F0" height="31.6094" rx="2.5" ry="2.5" style="stroke:#181818;stroke-width:0.5;" width="76.5625" x="311.8267" y="739.8672"/><text fill="#000000" font-family="sans-serif" font-size="14" lengthAdjust="spacing" textLength="62.5625" x="318.8267" y="761.4004">&#7912;ng d&#7909;ng</text></g><g class="participant participant-head" data-participant="System"><rect fill="#E2E2F0" height="31.6094" rx="2.5" ry="2.5" style="stroke:#181818;stroke-width:0.5;" width="196.793" x="531.9307" y="88.6094"/><text fill="#000000" font-family="sans-serif" font-size="14" lengthAdjust="spacing" textLength="182.793" x="538.9307" y="110.1426">H&#7879; th&#7889;ng &#432;u &#273;&#227;i v&#224; &#273;&#417;n h&#224;ng</text></g><g class="participant participant-tail" data-participant="System"><rect fill="#E2E2F0" height="31.6094" rx="2.5" ry="2.5" style="stroke:#181818;stroke-width:0.5;" width="196.793" x="531.9307" y="739.8672"/><text fill="#000000" font-family="sans-serif" font-size="14" lengthAdjust="spacing" textLength="182.793" x="538.9307" y="761.4004">H&#7879; th&#7889;ng &#432;u &#273;&#227;i v&#224; &#273;&#417;n h&#224;ng</text></g><g><title>.ng d.ng</title><rect fill="#FFFFFF" height="256.2969" style="stroke:#181818;stroke-width:1;" width="10" x="345.1079" y="153.5703"/></g><g><title>.ng d.ng</title><rect fill="#FFFFFF" height="169.5938" style="stroke:#181818;stroke-width:1;" width="10" x="345.1079" y="509.9219"/></g><g><title>H. th.ng .u ..i v. ..n h.ng</title><rect fill="#FFFFFF" height="203.5938" style="stroke:#181818;stroke-width:1;" width="10" x="625.3271" y="183.9219"/></g><g><title>H. th.ng .u ..i v. ..n h.ng</title><rect fill="#FFFFFF" height="116.8906" style="stroke:#181818;stroke-width:1;" width="10" x="625.3271" y="540.2734"/></g><g class="message" data-participant-1="Customer" data-participant-2="App"><polygon fill="#181818" points="333.1079,149.5703,343.1079,153.5703,333.1079,157.5703,337.1079,153.5703" style="stroke:#181818;stroke-width:1;"/><line style="stroke:#181818;stroke-width:1;" x1="60.3652" x2="339.1079" y1="153.5703" y2="153.5703"/><text fill="#000000" font-family="sans-serif" font-size="13" lengthAdjust="spacing" textLength="240.6396" x="67.3652" y="148.7139">Ch&#7885;n h&#224;ng A/B, m&#227; Store v&#224; m&#227; to&#224;n s&#224;n</text></g><g class="message" data-participant-1="App" data-participant-2="System"><polygon fill="#181818" points="613.3271,179.9219,623.3271,183.9219,613.3271,187.9219,617.3271,183.9219" style="stroke:#181818;stroke-width:1;"/><line style="stroke:#181818;stroke-width:1;" x1="355.1079" x2="619.3271" y1="183.9219" y2="183.9219"/><text fill="#000000" font-family="sans-serif" font-size="13" lengthAdjust="spacing" textLength="96.8271" x="362.1079" y="179.0654">H&#7887;i gi&#225; sau gi&#7843;m</text></g><g class="message" data-participant-1="System" data-participant-2="System"><line style="stroke:#181818;stroke-width:1;" x1="635.3271" x2="677.3271" y1="214.2734" y2="214.2734"/><line style="stroke:#181818;stroke-width:1;" x1="677.3271" x2="677.3271" y1="214.2734" y2="227.2734"/><line style="stroke:#181818;stroke-width:1;" x1="636.3271" x2="677.3271" y1="227.2734" y2="227.2734"/><polygon fill="#181818" points="646.3271,223.2734,636.3271,227.2734,646.3271,231.2734,642.3271,227.2734" style="stroke:#181818;stroke-width:1;"/><text fill="#000000" font-family="sans-serif" font-size="13" lengthAdjust="spacing" textLength="211.0088" x="642.3271" y="209.417">Ki&#7875;m tra m&#227; c&#242;n h&#7841;n v&#224; &#273;&#7911; &#273;i&#7873;u ki&#7879;n</text></g><path d="M301.8267,242.2734 L361.9976,242.2734 L361.9976,250.625 L351.9976,260.625 L301.8267,260.625 L301.8267,242.2734" fill="#EEEEEE" style="stroke:#000000;stroke-width:1.5;"/><rect fill="none" height="138.2422" style="stroke:#000000;stroke-width:1.5;" width="574.106" x="301.8267" y="242.2734"/><text fill="#000000" font-family="sans-serif" font-size="13" font-weight="bold" lengthAdjust="spacing" textLength="15.1709" x="316.8267" y="256.7686">alt</text><text fill="#000000" font-family="sans-serif" font-size="11" font-weight="bold" lengthAdjust="spacing" textLength="120.2695" x="376.9976" y="255.6924">[M&#227; kh&#244;ng d&#249;ng &#273;&#432;&#7907;c]</text><g class="message" data-participant-1="System" data-participant-2="App"><polygon fill="#181818" points="366.1079,278.9766,356.1079,282.9766,366.1079,286.9766,362.1079,282.9766" style="stroke:#181818;stroke-width:1;"/><line style="stroke:#181818;stroke-width:1;stroke-dasharray:2,2;" x1="360.1079" x2="624.3271" y1="282.9766" y2="282.9766"/><text fill="#000000" font-family="sans-serif" font-size="13" lengthAdjust="spacing" textLength="181.2446" x="372.1079" y="278.1201">Gi&#7843;i th&#237;ch m&#227; n&#224;o kh&#244;ng h&#7907;p l&#7879;</text></g><line style="stroke:#000000;stroke-width:1;stroke-dasharray:2,2;" x1="301.8267" x2="875.9326" y1="291.9766" y2="291.9766"/><text fill="#000000" font-family="sans-serif" font-size="11" font-weight="bold" lengthAdjust="spacing" textLength="59.1519" x="306.8267" y="303.3955">[M&#227; h&#7907;p l&#7879;]</text><g class="message" data-participant-1="System" data-participant-2="System"><line style="stroke:#181818;stroke-width:1;" x1="635.3271" x2="677.3271" y1="329.1641" y2="329.1641"/><line style="stroke:#181818;stroke-width:1;" x1="677.3271" x2="677.3271" y1="329.1641" y2="342.1641"/><line style="stroke:#181818;stroke-width:1;" x1="636.3271" x2="677.3271" y1="342.1641" y2="342.1641"/><polygon fill="#181818" points="646.3271,338.1641,636.3271,342.1641,646.3271,346.1641,642.3271,342.1641" style="stroke:#181818;stroke-width:1;"/><text fill="#000000" font-family="sans-serif" font-size="13" lengthAdjust="spacing" textLength="211.6055" x="642.3271" y="324.3076">Gi&#7843;m theo Store tr&#432;&#7899;c, to&#224;n s&#224;n sau</text></g><g class="message" data-participant-1="System" data-participant-2="App"><polygon fill="#181818" points="366.1079,368.5156,356.1079,372.5156,366.1079,376.5156,362.1079,372.5156" style="stroke:#181818;stroke-width:1;"/><line style="stroke:#181818;stroke-width:1;stroke-dasharray:2,2;" x1="360.1079" x2="624.3271" y1="372.5156" y2="372.5156"/><text fill="#000000" font-family="sans-serif" font-size="13" lengthAdjust="spacing" textLength="155.3652" x="372.1079" y="367.6592">Hi&#7879;n ti&#7873;n ph&#7843;i tr&#7843; ri&#234;ng A/B</text></g><g class="message" data-participant-1="App" data-participant-2="Customer"><polygon fill="#181818" points="71.3652,405.8672,61.3652,409.8672,71.3652,413.8672,67.3652,409.8672" style="stroke:#181818;stroke-width:1;"/><line style="stroke:#181818;stroke-width:1;stroke-dasharray:2,2;" x1="65.3652" x2="349.1079" y1="409.8672" y2="409.8672"/><text fill="#000000" font-family="sans-serif" font-size="13" lengthAdjust="spacing" textLength="260.7427" x="77.3652" y="405.0107">Hi&#7875;n th&#7883; k&#7871;t qu&#7843; ki&#7875;m tra m&#227; v&#224; ti&#7873;n t&#7915;ng &#273;&#417;n</text></g><rect fill="#EEEEEE" height="3" style="stroke:#EEEEEE;stroke-width:1;" width="885.9326" x="0" y="439.043"/><line style="stroke:#000000;stroke-width:1;" x1="0" x2="885.9326" y1="439.043" y2="439.043"/><line style="stroke:#000000;stroke-width:1;" x1="0" x2="885.9326" y1="442.043" y2="442.043"/><rect fill="#EEEEEE" height="24.3516" style="stroke:#000000;stroke-width:2;" width="225.4912" x="330.2207" y="427.8672"/><text fill="#000000" font-family="sans-serif" font-size="13" font-weight="bold" lengthAdjust="spacing" textLength="207.8794" x="336.2207" y="445.3623">N&#7871;u kh&#225;ch &#273;&#7891;ng &#253; v&#7899;i gi&#225; hi&#7875;n th&#7883;</text><path d="M10,469.2188 L75.2109,469.2188 L75.2109,477.5703 L65.2109,487.5703 L10,487.5703 L10,469.2188" fill="#EEEEEE" style="stroke:#000000;stroke-width:1.5;"/><rect fill="none" height="218.2969" style="stroke:#000000;stroke-width:1.5;" width="738.7236" x="10" y="469.2188"/><text fill="#000000" font-family="sans-serif" font-size="13" font-weight="bold" lengthAdjust="spacing" textLength="20.2109" x="25" y="483.7139">opt</text><text fill="#000000" font-family="sans-serif" font-size="11" font-weight="bold" lengthAdjust="spacing" textLength="140.5723" x="90.2109" y="482.6377">[Kh&#225;ch x&#225;c nh&#7853;n &#273;&#7863;t h&#224;ng]</text><g class="message" data-participant-1="Customer" data-participant-2="App"><polygon fill="#181818" points="333.1079,505.9219,343.1079,509.9219,333.1079,513.9219,337.1079,509.9219" style="stroke:#181818;stroke-width:1;"/><line style="stroke:#181818;stroke-width:1;" x1="60.3652" x2="339.1079" y1="509.9219" y2="509.9219"/><text fill="#000000" font-family="sans-serif" font-size="13" lengthAdjust="spacing" textLength="109.1479" x="67.3652" y="505.0654">X&#225;c nh&#7853;n &#273;&#7863;t h&#224;ng</text></g><g class="message" data-participant-1="App" data-participant-2="System"><polygon fill="#181818" points="613.3271,536.2734,623.3271,540.2734,613.3271,544.2734,617.3271,540.2734" style="stroke:#181818;stroke-width:1;"/><line style="stroke:#181818;stroke-width:1;" x1="355.1079" x2="619.3271" y1="540.2734" y2="540.2734"/><text fill="#000000" font-family="sans-serif" font-size="13" lengthAdjust="spacing" textLength="197.7422" x="362.1079" y="535.417">T&#7841;o c&#225;c &#273;&#417;n v&#7899;i gi&#225; v&#7915;a x&#225;c nh&#7853;n</text></g><path d="M301.8267,555.2734 L361.9976,555.2734 L361.9976,563.625 L351.9976,573.625 L301.8267,573.625 L301.8267,555.2734" fill="#EEEEEE" style="stroke:#000000;stroke-width:1.5;"/><rect fill="none" height="94.8906" style="stroke:#000000;stroke-width:1.5;" width="436.897" x="301.8267" y="555.2734"/><text fill="#000000" font-family="sans-serif" font-size="13" font-weight="bold" lengthAdjust="spacing" textLength="15.1709" x="316.8267" y="569.7686">alt</text><text fill="#000000" font-family="sans-serif" font-size="11" font-weight="bold" lengthAdjust="spacing" textLength="116.7085" x="376.9976" y="568.6924">[&#272;&#7863;t h&#224;ng th&#224;nh c&#244;ng]</text><g class="message" data-participant-1="System" data-participant-2="App"><polygon fill="#181818" points="366.1079,591.9766,356.1079,595.9766,366.1079,599.9766,362.1079,595.9766" style="stroke:#181818;stroke-width:1;"/><line style="stroke:#181818;stroke-width:1;stroke-dasharray:2,2;" x1="360.1079" x2="624.3271" y1="595.9766" y2="595.9766"/><text fill="#000000" font-family="sans-serif" font-size="13" lengthAdjust="spacing" textLength="155.2891" x="372.1079" y="591.1201">L&#432;u s&#7889; gi&#7843;m tr&#234;n t&#7915;ng &#273;&#417;n</text></g><line style="stroke:#000000;stroke-width:1;stroke-dasharray:2,2;" x1="301.8267" x2="738.7236" y1="604.9766" y2="604.9766"/><text fill="#000000" font-family="sans-serif" font-size="11" font-weight="bold" lengthAdjust="spacing" textLength="96.5508" x="306.8267" y="616.3955">[&#272;&#7863;t h&#224;ng th&#7845;t b&#7841;i]</text><g class="message" data-participant-1="System" data-participant-2="App"><polygon fill="#181818" points="366.1079,638.1641,356.1079,642.1641,366.1079,646.1641,362.1079,642.1641" style="stroke:#181818;stroke-width:1;"/><line style="stroke:#181818;stroke-width:1;stroke-dasharray:2,2;" x1="360.1079" x2="624.3271" y1="642.1641" y2="642.1641"/><text fill="#000000" font-family="sans-serif" font-size="13" lengthAdjust="spacing" textLength="246.2192" x="372.1079" y="637.3076">Kh&#244;ng t&#7841;o &#273;&#417;n; l&#432;&#7907;t voucher ch&#432;a b&#7883; d&#249;ng</text></g><g class="message" data-participant-1="App" data-participant-2="Customer"><polygon fill="#181818" points="71.3652,675.5156,61.3652,679.5156,71.3652,683.5156,67.3652,679.5156" style="stroke:#181818;stroke-width:1;"/><line style="stroke:#181818;stroke-width:1;stroke-dasharray:2,2;" x1="65.3652" x2="349.1079" y1="679.5156" y2="679.5156"/><text fill="#000000" font-family="sans-serif" font-size="13" lengthAdjust="spacing" textLength="144.5488" x="77.3652" y="674.6592">Hi&#7875;n th&#7883; k&#7871;t qu&#7843; &#273;&#7863;t h&#224;ng</text></g><path d="M494,699.5156 L494,725.5156 L766,725.5156 L766,709.5156 L756,699.5156 L494,699.5156" fill="#FEFFDD" style="stroke:#181818;stroke-width:0.5;"/><path d="M756,699.5156 L756,709.5156 L766,709.5156 L756,699.5156" fill="#FEFFDD" style="stroke:#181818;stroke-width:0.5;"/><text fill="#000000" font-family="sans-serif" font-size="13" lengthAdjust="spacing" textLength="251.4751" x="500" y="718.0107">H&#7911;y B sau n&#224;y kh&#244;ng l&#224;m &#273;&#7893;i s&#7889; ti&#7873;n c&#7911;a A.</text><!--SRC=[ZLJ1Qjj04BthAmQVa_JUu4AIGm9kUqaFlQgoY1PBkwgqClMnvE13AQqfFPHSR4nmIGY44YYrA3siyN_id_JjQcNBZWkzI5vvvisRDszMCXc7TEOpYeMUJnZrHH54OKOo4_o24br-anJh-OpJOgJdFoL5QimllC1F9HESEf6Q1179IC-l1oIPBjzpahgyHV9Yj9pWa2tlTNaLK2zYz0xHn15ynm_fWkdvDC5BJH2hfXH4kXn91Ae7cwxBho04IChzui3p0oaoQhcIbaUB_9nEYboA9CoyrCya2rZgSqajNNu7I5UNroxiA4qt8yvqEJJCon42b_U59O62QkoehqkS3t8P9fvNbwBzPmQFdj89yZ-wK3fwShn72Jev1zFG8fcJ5FYNSZnC3wploz2oCGW0gi211KAVMAK76dRwh5CS2HVUJEn0zyi4KlksNg1-W176oLqpkfpXQOPJK0-l8OZ4abuWredTLR-gYM5Mqy2Z6dj_rUYfOSEWbxg3-gOCLsDHvqE5QGgZb4ClZFFGGZU-hV4Qh4-h-Sie54wmsYjx3ScC5BludDa-QikbKSKkmuiofcwgQNWXxthTS5j2ApoGLkEiu2wvjSC7wkdv7qbl2mFMszJM2Bh3viqYPhHUkqqlWL8OWOnTpH2-85hzDew-ScEEcbNRRK-aibwfngfihXxHOnU-_dVm1YsYRS-zWaq478FyolGDTlXvwpU9DE6SbFW29oq-hsiQYunv1Cm7Is37x9wRRSknUFKT83DCR5DG8ckaBMHSCvBUc9jgDtAdigEqNLcWGugjgUNgQWkYvRqF44XkRMzAmIP4ZutYzFfFgsmflsK9KuCB74GVCAi2MFhPW8xjncEZ1lL6nMgSr7UWbSgvBa2yJqS71eyCtby0]--></g></svg>